# xmcd CD database file generated by OrangeCD 4.2
#
# Track frame offsets:
#	183
#	14673
#	39563
#
# Disc length: 829 seconds
#
# Revision: 0
# Processed by: cddbd v1.4PL0 Copyright (c) Steve Scherf et al.
# Submitted via: OrangeCD 4.2
#
DISCID=1f033b03
DTITLE=Crow, Sheryl - Strong Enough
DYEAR=1995
DGENRE=Country Rock
TTITLE0=Strong Enough
TTITLE1=No One Said It Would Be Easy
TTITLE2=All I Wanna Do (Live In Nashville)
EXTD=
EXTT0=
EXTT1=
EXTT2=
PLAYORDER=
